<svg xmlns="http://www.w3.org/2000/svg" width="242" height="64.423">
    <defs>
        <style>
            .cls-1{fill:#f0b90b}
        </style>
    </defs>
    <g id="ic_binancesmartchain" transform="translate(-.05)">
        <path id="패스_612" data-name="패스 612" class="cls-1" d="M151.091 38.809h-11.862V13.858h11.606c5.113 0 8.232 2.556 8.232 6.442v.051a5.741 5.741 0 0 1-3.273 5.369c2.863 1.125 4.653 2.761 4.653 6.136v.051c.001 4.652-3.681 6.902-9.356 6.902zm2.509-17.588c0-1.636-1.278-2.556-3.579-2.556H144.6v5.265h5.062c2.4 0 3.937-.767 3.937-2.659zm1.38 10.021c0-1.687-1.228-2.71-4.04-2.71h-6.34V34h6.545c2.4 0 3.885-.869 3.885-2.71v-.051zm11.5 7.567V13.858h5.47v24.951zm30.32 0-12.067-15.85v15.85h-5.42V13.858h5.062l11.708 15.39v-15.39h5.42v24.951zm29.348 0-2.3-5.573h-10.532l-2.3 5.573h-5.573l10.686-25.156h5.062l10.686 25.156zM218.582 20.3l-3.323 8.078h6.647zM253.4 38.809l-12.067-15.85v15.85h-5.419V13.858h5.061l11.709 15.39v-15.39h5.42v24.951zm22.753.46a12.576 12.576 0 0 1-12.782-12.834v-.051A12.678 12.678 0 0 1 276.41 13.5a12.906 12.906 0 0 1 9.816 3.835l-3.477 4.039a9.278 9.278 0 0 0-6.391-2.812c-4.193 0-7.26 3.477-7.26 7.772v.051c0 4.295 2.965 7.823 7.26 7.823 2.863 0 4.6-1.125 6.545-2.914l3.477 3.528a12.767 12.767 0 0 1-10.226 4.447zm14.674-.46V13.858h18.816v4.908H296.3v5.062h11.76v4.908H296.3V34h13.549v4.908h-19.02z" transform="translate(-68.017 -6.598)"/>
        <path id="패스_613" data-name="패스 613" class="cls-1" d="M139.706 82.657c0-1.153 1.031-2.062 2.8-2.062a7.8 7.8 0 0 1 4.663 1.767l1.62-2.282a9.522 9.522 0 0 0-6.234-2.16c-3.411 0-5.866 2.012-5.866 5.007 0 3.19 2.062 4.27 5.718 5.154 3.19.736 3.878 1.4 3.878 2.651 0 1.325-1.178 2.184-3.043 2.184a7.911 7.911 0 0 1-5.424-2.233L136 92.842a10.582 10.582 0 0 0 7.166 2.749c3.608 0 6.136-1.914 6.136-5.154 0-2.871-1.89-4.172-5.522-5.056-3.289-.781-4.074-1.375-4.074-2.724z" transform="translate(-66.439 -38.08)"/>
        <path id="패스_614" data-name="패스 614" class="cls-1" d="M181.865 83.259V95.58h3.019V78.4h-3.215l-5.227 8.123-5.228-8.123H168v17.18h2.97V83.308l5.375 8.05h.1z" transform="translate(-82.078 -38.314)"/>
        <path id="패스_615" data-name="패스 615" class="cls-1" d="M216.188 78.16h-2.8l-7.559 17.3h3.092l1.767-4.148h8.123l1.742 4.148h3.19zm1.522 10.479h-5.915l2.945-6.872z" transform="translate(-100.566 -38.197)"/>
        <path id="패스_616" data-name="패스 616" class="cls-1" d="m260.251 95.58-4.638-6.5a5.144 5.144 0 0 0 4.1-5.227c0-3.362-2.43-5.448-6.381-5.448h-7.657V95.58h3.019v-5.989h3.78l4.221 5.988zm-3.608-11.56c0 1.767-1.374 2.9-3.534 2.9h-4.418v-5.771h4.393c2.234 0 3.559.981 3.559 2.871z" transform="translate(-120.037 -38.314)"/>
        <path id="패스_617" data-name="패스 617" class="cls-1" d="M285.352 81.2h5.448v-2.8h-13.94v2.8h5.448v14.38h3.043z" transform="translate(-135.278 -38.314)"/>
        <path id="패스_618" data-name="패스 618" class="cls-1" d="m337.074 92.549-1.939-1.963a6.735 6.735 0 0 1-4.933 2.233c-3.289 0-5.669-2.749-5.669-6.136A5.774 5.774 0 0 1 330.2 80.6a6.833 6.833 0 0 1 4.81 2.135l1.939-2.233a8.955 8.955 0 0 0-6.725-2.675 8.885 8.885 0 0 0-.123 17.769 8.864 8.864 0 0 0 6.973-3.047z" transform="translate(-157.029 -38.033)"/>
        <path id="패스_619" data-name="패스 619" class="cls-1" d="M368.549 88.34v7.24h3.019V78.4h-3.019v7.142h-8.2V78.4h-3.019v17.18h3.019v-7.24z" transform="translate(-174.606 -38.314)"/>
        <path id="패스_620" data-name="패스 620" class="cls-1" d="M400.319 78.16h-2.8l-7.559 17.3h3.092l1.767-4.148h8.123l1.742 4.148h3.19zm1.521 10.48h-5.915l2.945-6.872z" transform="translate(-190.552 -38.197)"/>
        <path id="패스_621" data-name="패스 621" class="cls-1" d="M430.139 78.4v17.18h3.019V78.4z" transform="translate(-210.187 -38.314)"/>
        <path id="패스_622" data-name="패스 622" class="cls-1" d="m456.079 90.278-9.2-11.878h-2.8v17.18h2.97V83.358l9.473 12.222h2.528V78.4h-2.97z" transform="translate(-216.999 -38.314)"/>
        <path id="패스_623" data-name="패스 623" class="cls-1" d="M38.13 7.26 27.341 13.5 20.95 9.868 38.078 0l17.129 9.868-6.289 3.632z" transform="translate(-10.214)"/>
        <path id="패스_624" data-name="패스 624" class="cls-1" d="m49.116 36.6 6.284 3.63v7.26l-10.784 6.238V66.2l-6.289 3.63-6.289-3.63V53.728L21.25 47.491V40.23l6.289-3.63 10.788 6.238z" transform="translate(-10.361 -17.887)"/>
        <path id="패스_625" data-name="패스 625" class="cls-1" d="M82.039 68.1v7.26l-6.289 3.63v-7.26z" transform="translate(-36.995 -33.281)"/>
        <path id="패스_626" data-name="패스 626" class="cls-1" d="m75.75 78.244 10.788-6.238h.051V59.53l6.289-3.63v19.736L75.75 85.5z" transform="translate(-36.995 -27.319)"/>
        <path id="패스_627" data-name="패스 627" class="cls-1" d="m90.839 31.66-6.289-3.63 6.289-3.63 6.289 3.63v7.26l-6.289 3.63z" transform="translate(-41.296 -11.924)"/>
        <path id="패스_628" data-name="패스 628" class="cls-1" d="M42.25 111.96v-7.26l6.289 3.63 6.289-3.63v7.26l-6.289 3.63z" transform="translate(-20.623 -51.167)"/>
        <path id="패스_629" data-name="패스 629" class="cls-1" d="M27.439 78.991 21.15 75.36V68.1l6.289 3.63z" transform="translate(-10.312 -33.281)"/>
        <path id="패스_630" data-name="패스 630" class="cls-1" d="m48.539 31.66-6.289-3.63 6.289-3.63 6.289 3.63z" transform="translate(-20.623 -11.924)"/>
        <path id="패스_631" data-name="패스 631" class="cls-1" d="m12.628 28.03-6.289 3.63v7.26L.05 35.291V28.03l6.289-3.63z" transform="translate(0 -11.924)"/>
        <path id="패스_632" data-name="패스 632" class="cls-1" d="m.05 55.9 6.289 3.63h.051v12.476l10.788 6.238V85.5L.05 75.636z" transform="translate(0 -27.319)"/>
    </g>
</svg>
