<svg xmlns="http://www.w3.org/2000/svg" width="78.002" height="78">
    <defs>
        <style>
            .cls-2{fill:#fff}.cls-3{fill:#58595b}
        </style>
    </defs>
    <g id="ic_coingecko" transform="translate(-95.649 366.39)">
        <path id="패스_588" data-name="패스 588" d="M268.948-312.345a64.135 64.135 0 0 0-3.378-12.887 49.97 49.97 0 0 0-2.667-6.005 59.3 59.3 0 0 0-3.509-5.631 20.433 20.433 0 0 0-4.7-4.749 27.447 27.447 0 0 0-5.973-2.953c-2.04-.815-4.074-1.6-6.192-2.209-2.115-.626-4.283-1.069-6.538-1.513v-.233a19.74 19.74 0 0 1 6.933-.014 21.1 21.1 0 0 1 6.621 2.217 38.6 38.6 0 0 1 5.6 4.1c1.765 1.457 3.529 2.909 5.205 4.508a26.463 26.463 0 0 1 4.437 5.361 30.45 30.45 0 0 1 3.112 6.266 28.529 28.529 0 0 1 1.278 13.737z" transform="translate(-100.684 -12.592)" style="fill:#8dc63f"/>
        <path id="패스_589" data-name="패스 589" class="cls-2" d="M267.9-326.082a30.45 30.45 0 0 0-3.112-6.266 26.463 26.463 0 0 0-4.437-5.361c-1.676-1.6-3.441-3.051-5.205-4.508a38.6 38.6 0 0 0-5.6-4.1 21.1 21.1 0 0 0-6.621-2.217 19.74 19.74 0 0 0-6.933.014v.233c2.255.444 4.423.886 6.538 1.513 2.118.611 4.152 1.394 6.192 2.209a27.447 27.447 0 0 1 5.973 2.953 20.433 20.433 0 0 1 4.7 4.749 59.3 59.3 0 0 1 3.509 5.631 49.97 49.97 0 0 1 2.667 6.005 64.135 64.135 0 0 1 3.378 12.887h.232a28.529 28.529 0 0 0-1.281-13.742z" transform="translate(-100.684 -12.592)"/>
        <path id="패스_590" data-name="패스 590" class="cls-2" d="M268.831-286.73a6.105 6.105 0 0 1 .276.67 2.568 2.568 0 0 0-.276-.67z" transform="translate(-124.246 -57.15)"/>
        <path id="패스_591" data-name="패스 591" class="cls-2" d="M203.117-276.945a4.9 4.9 0 0 1 4.9 4.9 4.9 4.9 0 0 1-4.9 4.9 4.9 4.9 0 0 1-4.905-4.9 4.9 4.9 0 0 1 4.905-4.9z" transform="translate(-73.582 -64.17)"/>
        <path id="패스_592" data-name="패스 592" class="cls-2" d="M203.117-267.137a4.9 4.9 0 0 0 4.9-4.9 4.9 4.9 0 0 0-4.9-4.9 4.9 4.9 0 0 0-4.905 4.9 4.9 4.9 0 0 0 4.905 4.9z" transform="translate(-73.582 -64.17)"/>
        <path id="패스_593" data-name="패스 593" class="cls-2" d="M256.305-102.748z" transform="translate(-115.26 -189.144)"/>
        <g id="그룹_268" data-name="그룹 268" transform="translate(95.649 -366.389)">
            <g id="그룹_267" data-name="그룹 267">
                <path id="패스_594" data-name="패스 594" class="cls-2" d="M134.475-366.389a39 39 0 0 0-38.826 39.176 39 39 0 0 0 39.176 38.824 39 39 0 0 0 38.826-39.173 39 39 0 0 0-39.176-38.827zm-28.607 60.734a36.239 36.239 0 0 0 2.576 3.04 24.686 24.686 0 0 1-2.576-3.04zm23.667-23.645a6.972 6.972 0 0 1-6.973-6.972 6.973 6.973 0 0 1 6.973-6.971 6.972 6.972 0 0 1 6.972 6.971 6.972 6.972 0 0 1-6.972 6.972zm5.561 7.539.038-.045.037-.044a12.506 12.506 0 0 0 6.533 1.8 30.682 30.682 0 0 0 6.865-.571 37.406 37.406 0 0 0 6.673-2.063 32.826 32.826 0 0 0 3.744-1.791q.958-.587 1.881-1.216c.168-.124.337-.247.5-.378l.018.021.057.068a25.316 25.316 0 0 1-5.967 3.829 38.1 38.1 0 0 1-6.7 2.438 21.049 21.049 0 0 1-7.147.825 9.836 9.836 0 0 1-6.528-2.876zm17.9-7.539a1.509 1.509 0 0 1 1.5-1.515 1.511 1.511 0 0 1 1.518 1.5 1.511 1.511 0 0 1-1.5 1.517 1.511 1.511 0 0 1-1.521-1.502zm-11.948 37.41c-1.51-10.553 7.713-20.891 12.909-26.181 1.169-1.189 2.971-2.826 4.657-4.565 6.782-6.317 8.159-13.879-5.673-17.655-2.618-.758-5.329-1.833-8.078-2.917a6.1 6.1 0 0 0-.275-.67c-1.673-3.483-6.116-3.9-9.8-2.755a20.321 20.321 0 0 0-9.442-.3c-13.319 3.671-15.49 10.163-16.017 17.982-.709 8.508-1.117 14.837-4.335 22.072a35.892 35.892 0 0 1-6.4-20.352 36.064 36.064 0 0 1 35.9-36.225 36.065 36.065 0 0 1 36.224 35.9 36.073 36.073 0 0 1-29.673 35.663z" transform="translate(-95.649 366.389)"/>
            </g>
        </g>
        <path id="패스_595" data-name="패스 595" class="cls-2" d="M134.39-148.413a36.237 36.237 0 0 1-2.576-3.04 24.687 24.687 0 0 0 2.576 3.04z" transform="translate(-25.946 -154.202)"/>
        <path id="패스_596" data-name="패스 596" class="cls-2" d="M319.8-221.149a19.31 19.31 0 0 0 1.881-1.216q-.924.628-1.881 1.216z" transform="translate(-160.814 -103.328)"/>
        <path id="패스_597" data-name="패스 597" class="cls-3" d="M326.459-223.323q.261-.177.519-.357l-.018-.021c-.16.131-.333.254-.501.378z" transform="translate(-165.591 -102.369)"/>
        <path id="패스_598" data-name="패스 598" class="cls-3" d="M259.239-218.06a32.823 32.823 0 0 1-3.744 1.791 37.408 37.408 0 0 1-6.673 2.063 30.682 30.682 0 0 1-6.865.571 12.506 12.506 0 0 1-6.533-1.8l-.037.044c1.323.779 2.661 2.567 5.341 2.567a33.975 33.975 0 0 0 18.511-5.236z" transform="translate(-100.252 -106.416)"/>
        <path id="패스_599" data-name="패스 599" class="cls-3" d="M259.142-222.054a33.975 33.975 0 0 1-18.512 5.235c-2.68 0-4.018-1.788-5.341-2.567l-.038.045a9.836 9.836 0 0 0 6.537 2.873 21.049 21.049 0 0 0 7.147-.825 38.1 38.1 0 0 0 6.7-2.438 25.315 25.315 0 0 0 5.967-3.829l-.057-.068q-.259.18-.519.357a19.31 19.31 0 0 1-1.884 1.217z" transform="translate(-100.155 -102.422)"/>
    </g>
</svg>
