<svg xmlns="http://www.w3.org/2000/svg" width="100" height="80">
    <defs>
        <clipPath id="a">
            <path data-name="사각형 663" transform="translate(424 1028)" style="stroke:#707070;fill:#fff" d="M0 0h100v80H0z"/>
        </clipPath>
    </defs>
    <g style="clip-path:url(#a)">
        <g style="opacity:.3" transform="translate(-424 -1028)">
            <path data-name="패스 327" d="M-961.569 708.509c0-14.355-7.187-26.7-12.651-30.725-.026-.008-.415-.227-.381.345 0 .009-.008.009-.008.017-.45 27.724-15 35.235-23 45.358-18.463 23.358-1.291 48.966 16.192 53.694 9.785 2.647-2.26-4.686-3.811-20.179-1.878-18.719 23.659-33.008 23.659-48.51z" transform="translate(1447.062 340.264)" style="fill:#fff"/>
            <path data-name="패스 328" d="M-864.821 820.3c-.113-.076-.268-.126-.381.051-.3 3.49-3.966 10.958-8.607 17.811-15.743 23.248-6.772 34.459-1.724 40.477 2.927 3.5 0 0 7.317-3.574a32.144 32.144 0 0 0 15.768-24.816c1.448-16.511-8.745-26.921-12.373-29.949z" transform="translate(1358.807 237.912)" style="fill:#06943f"/>
        </g>
    </g>
</svg>
