<svg
  xmlns="http://www.w3.org/2000/svg"
  width="50"
  height="50"
  viewBox="0 0 50 50"
>
  <g id="img_ht_50px" transform="translate(-456 -1391)">
    <circle
      id="타원_55"
      data-name="타원 55"
      cx="25"
      cy="25"
      r="25"
      transform="translate(456 1391)"
      fill="#fff"
    />
    <g id="img_hrc20" transform="translate(471.626 1401.579)">
      <path
        id="패스_327"
        data-name="패스 327"
        d="M-992.87,686.613c0-4.141-2.073-7.7-3.649-8.863-.007,0-.12-.066-.11.1,0,0,0,0,0,.005-.13,8-4.326,10.164-6.634,13.084-5.326,6.738-.372,14.125,4.671,15.489,2.823.764-.652-1.352-1.1-5.821C-1000.236,695.206-992.87,691.085-992.87,686.613Z"
        transform="translate(1005.559 -677.736)"
        fill="#00023e"
      />
      <path
        id="패스_328"
        data-name="패스 328"
        d="M-877.534,820.252c-.033-.022-.078-.036-.11.015a15.019,15.019,0,0,1-2.483,5.138c-4.541,6.706-1.953,9.94-.5,11.676.844,1.009,0,0,2.111-1.031a9.273,9.273,0,0,0,4.549-7.158A10.248,10.248,0,0,0-877.534,820.252Z"
        transform="translate(892.674 -808.652)"
        fill="#008cd6"
      />
    </g>
  </g>
</svg>
