<svg
  xmlns="http://www.w3.org/2000/svg"
  width="56"
  height="56"
  viewBox="0 0 56 56"
>
  <g id="img_rcgbep_56px" transform="translate(-456 -818)">
    <circle
      id="타원_52"
      data-name="타원 52"
      cx="25"
      cy="25"
      r="25"
      transform="translate(456 818)"
      fill="#fff"
    />
    <g id="그룹_220" data-name="그룹 220" transform="translate(466 828)">
      <path
        id="패스_466"
        data-name="패스 466"
        d="M-185.37,572.093a1.213,1.213,0,0,0-1.713.048,1.213,1.213,0,0,0,.048,1.713,12.2,12.2,0,0,1,3.857,8.948,12.324,12.324,0,0,1-12.31,12.31A12.323,12.323,0,0,1-207.8,582.8a12.2,12.2,0,0,1,3.856-8.948,1.211,1.211,0,0,0,.048-1.713,1.213,1.213,0,0,0-1.713-.048,14.6,14.6,0,0,0-4.616,10.71,14.751,14.751,0,0,0,14.734,14.734A14.751,14.751,0,0,0-180.754,582.8,14.6,14.6,0,0,0-185.37,572.093Z"
        transform="translate(210.222 -567.536)"
      />
      <path
        id="패스_467"
        data-name="패스 467"
        d="M-191.558,580.538a1.212,1.212,0,0,0,1.212-1.212V568.87a1.212,1.212,0,0,0-1.212-1.212,1.212,1.212,0,0,0-1.212,1.212v10.456A1.212,1.212,0,0,0-191.558,580.538Z"
        transform="translate(210.74 -567.658)"
      />
      <path
        id="패스_468"
        data-name="패스 468"
        d="M-200.177,580.538a1.212,1.212,0,0,0,1.212-1.212V568.87a1.212,1.212,0,0,0-1.212-1.212,1.212,1.212,0,0,0-1.212,1.212v10.456A1.212,1.212,0,0,0-200.177,580.538Z"
        transform="translate(210.484 -567.658)"
      />
    </g>
    <g id="img_bnb_25px" transform="translate(26 -589)">
      <g
        id="타원_56"
        data-name="타원 56"
        transform="translate(456 1433)"
        fill="#fff"
        stroke="#1c1e35"
        stroke-width="1"
      >
        <circle cx="15" cy="15" r="15" stroke="none" />
        <circle cx="15" cy="15" r="14.5" fill="none" />
      </g>
      <g id="img_bep20" transform="translate(458.5 1435.5)" opacity="0.999">
        <path
          id="패스_186"
          data-name="패스 186"
          d="M144.111,381.869l-2.826,2.823-2.823-2.823,2.823-2.823Z"
          transform="translate(-138.462 -369.369)"
          fill="#f0b90b"
        />
        <path
          id="패스_187"
          data-name="패스 187"
          d="M182.031,312.874l4.838,4.841,2.823-2.823-7.662-7.662-7.662,7.662,2.823,2.823Z"
          transform="translate(-169.531 -307.23)"
          fill="#f0b90b"
        />
        <path
          id="패스_188"
          data-name="패스 188"
          d="M284.935,379.046l-2.823,2.823,2.823,2.823,2.821-2.823Z"
          transform="translate(-262.756 -369.369)"
          fill="#f0b90b"
        />
        <path
          id="패스_189"
          data-name="패스 189"
          d="M182.031,419.811l-4.838-4.838-2.823,2.821,7.662,7.662,7.662-7.662-2.823-2.821Z"
          transform="translate(-169.531 -400.455)"
          fill="#f0b90b"
        />
        <rect
          id="사각형_168"
          data-name="사각형 168"
          width="3.993"
          height="3.993"
          transform="translate(9.677 12.5) rotate(-45)"
          fill="#f0b90b"
        />
      </g>
    </g>
  </g>
</svg>
