<svg
  xmlns="http://www.w3.org/2000/svg"
  width="56"
  height="56"
  viewBox="0 0 56 56"
>
  <g id="img_rcgerc_56px" transform="translate(-110 -3340)">
    <g id="img_rcg_50px" transform="translate(-346 2522)">
      <circle
        id="타원_52"
        data-name="타원 52"
        cx="25"
        cy="25"
        r="25"
        transform="translate(456 818)"
        fill="#fff"
      />
      <g id="그룹_220" data-name="그룹 220" transform="translate(466 828)">
        <path
          id="패스_466"
          data-name="패스 466"
          d="M-185.37,572.093a1.213,1.213,0,0,0-1.713.048,1.213,1.213,0,0,0,.048,1.713,12.2,12.2,0,0,1,3.857,8.948,12.324,12.324,0,0,1-12.31,12.31A12.323,12.323,0,0,1-207.8,582.8a12.2,12.2,0,0,1,3.856-8.948,1.211,1.211,0,0,0,.048-1.713,1.213,1.213,0,0,0-1.713-.048,14.6,14.6,0,0,0-4.616,10.71,14.751,14.751,0,0,0,14.734,14.734A14.751,14.751,0,0,0-180.754,582.8,14.6,14.6,0,0,0-185.37,572.093Z"
          transform="translate(210.222 -567.536)"
        />
        <path
          id="패스_467"
          data-name="패스 467"
          d="M-191.558,580.538a1.212,1.212,0,0,0,1.212-1.212V568.87a1.212,1.212,0,0,0-1.212-1.212,1.212,1.212,0,0,0-1.212,1.212v10.456A1.212,1.212,0,0,0-191.558,580.538Z"
          transform="translate(210.74 -567.658)"
        />
        <path
          id="패스_468"
          data-name="패스 468"
          d="M-200.177,580.538a1.212,1.212,0,0,0,1.212-1.212V568.87a1.212,1.212,0,0,0-1.212-1.212,1.212,1.212,0,0,0-1.212,1.212v10.456A1.212,1.212,0,0,0-200.177,580.538Z"
          transform="translate(210.484 -567.658)"
        />
      </g>
    </g>
    <g id="img_eth_25px" transform="translate(-320 2017)">
      <g
        id="타원_54"
        data-name="타원 54"
        transform="translate(456 1349)"
        fill="#fff"
        stroke="#1c1e35"
        stroke-width="1"
      >
        <circle cx="15" cy="15" r="15" stroke="none" />
        <circle cx="15" cy="15" r="14.5" fill="none" />
      </g>
      <g id="img_erc20" transform="translate(463.316 1351.5)">
        <path
          id="패스_211"
          data-name="패스 211"
          d="M464.038,314.78v6.259l7.684-10.792Z"
          transform="translate(-456.355 -296.04)"
          fill="#232423"
        />
        <path
          id="패스_212"
          data-name="패스 212"
          d="M464.038,219.982v8.034l7.684-4.545Z"
          transform="translate(-456.355 -210.724)"
          fill="#030504"
        />
        <path
          id="패스_213"
          data-name="패스 213"
          d="M464.038,51.13v9.258l7.684,3.489Z"
          transform="translate(-456.355 -51.13)"
          fill="#232423"
        />
        <path
          id="패스_214"
          data-name="패스 214"
          d="M331.592,314.78v6.259l-7.684-10.792Z"
          transform="translate(-323.908 -296.04)"
          fill="#6f7071"
        />
        <path
          id="패스_215"
          data-name="패스 215"
          d="M331.595,219.982v8.034l-7.683-4.545Z"
          transform="translate(-323.911 -210.724)"
          fill="#272828"
        />
        <path
          id="패스_216"
          data-name="패스 216"
          d="M331.595,51.13v9.258l-7.683,3.489Z"
          transform="translate(-323.911 -51.13)"
          fill="#6f7071"
        />
      </g>
    </g>
  </g>
</svg>
